<svg xmlns="http://www.w3.org/2000/svg" version="1.0" viewBox="0 0 810 809.999993" fill="current">
  <path d="M405 810C181.679688 810 0 628.320312 0 405S181.679688 0 405 0s405 181.679688 405 405-181.679688 405-405 405Zm0-797.410156C188.625 12.589844 12.589844 188.625 12.589844 405 12.589844 621.375 188.625 797.410156 405 797.410156 621.375 797.410156 797.410156 621.375 797.410156 405 797.410156 188.625 621.375 12.589844 405 12.589844Zm0 0"/>
  <path d="M405 591.742188c-102.972656 0-186.742188-83.769532-186.742188-186.742188S302.027344 218.257812 405 218.257812 591.742188 302.027344 591.742188 405 507.972656 591.742188 405 591.742188Zm0-360.894532c-96.027344 0-174.152344 78.125-174.152344 174.152344S308.972656 579.152344 405 579.152344 579.152344 501.027344 579.152344 405 501.027344 230.847656 405 230.847656Zm0 0"/>
  <path d="M319.074219 373.488281c-3.480469 0-6.296875-2.820312-6.296875-6.296875v-68.742187c0-3.476563 2.816406-6.292969 6.296875-6.292969 3.476562 0 6.292969 2.816406 6.292969 6.292969v68.742187c0 3.476563-2.816407 6.296875-6.292969 6.296875Zm0 0"/>
  <path d="M339.695312 339.117188h-20.621093c-3.480469 0-6.296875-2.820313-6.296875-6.296876v-34.371093c0-3.476563 2.816406-6.292969 6.296875-6.292969h20.621093c12.949219 0 23.480469 10.53125 23.480469 23.480469 0 12.945312-10.53125 23.480469-23.480469 23.480469Zm-14.328124-12.589844h14.328124c6.003907 0 10.890626-4.886719 10.890626-10.890625 0-6.003907-4.886719-10.890625-10.890626-10.890625h-14.328124ZM480.613281 372.773438c-2.707031 0-5.207031-1.761719-6.027343-4.488282l-20.621094-68.742187c-.183594-.601563-.269532-1.210938-.269532-1.808594 0-2.707031 1.761719-5.210937 4.488282-6.03125 3.339844-1.011719 6.839844.894531 7.839844 4.222656l20.621093 68.742188c.183594.601562.269531 1.207031.269531 1.804687 0 2.710938-1.761718 5.214844-4.488281 6.03125-.605469.183594-1.214843.269532-1.8125.269532Zm0 0"/>
  <path d="M480.617188 372.773438c-.597657 0-1.207032-.085938-1.8125-.269532-2.722657-.816406-4.484376-3.316406-4.488282-6.019531 0-.601563.089844-1.214844.269532-1.816406l20.625-68.742188c.996093-3.328125 4.5-5.234375 7.839843-4.222656 2.722657.820313 4.484375 3.316406 4.484375 6.023437 0 .601563-.085937 1.210938-.265625 1.816407l-20.625 68.742187c-.816406 2.726563-3.320312 4.488282-6.027343 4.488282ZM319.074219 523c-3.480469 0-6.296875-2.816406-6.296875-6.292969v-68.742187c0-3.476563 2.816406-6.296875 6.296875-6.296875 3.476562 0 6.292969 2.820312 6.292969 6.296875v68.742187c0 3.476563-2.816407 6.292969-6.292969 6.292969ZM459.992188 528.15625c-3.476563 0-6.292969-2.816406-6.292969-6.296875v-68.742187c0-3.476563 2.816406-6.292969 6.292969-6.292969 3.480468 0 6.296874 2.816406 6.296874 6.292969v68.742187c0 3.480469-2.816406 6.296875-6.296874 6.296875Zm0 0"/>
  <path d="M480.617188 493.785156h-20.625c-3.476563 0-6.292969-2.816406-6.292969-6.292968v-34.375c0-3.476563 2.816406-6.292969 6.292969-6.292969h20.625c12.949218 0 23.480468 10.53125 23.480468 23.480469 0 12.949218-10.53125 23.480468-23.480468 23.480468Zm-14.328126-12.589844h14.328126c6.003906 0 10.890624-4.886718 10.890624-10.890624 0-6.003907-4.886718-10.890626-10.890624-10.890626h-14.328126Zm0 0"/>
  <path d="M497.808594 528.160156c-2.308594 0-4.53125-1.277344-5.636719-3.484375l-17.1875-34.367187c-.449219-.90625-.667969-1.867188-.667969-2.816406.003906-2.308594 1.277344-4.53125 3.484375-5.632813 3.109375-1.550781 6.890625-.289063 8.445313 2.816406l17.1875 34.371094c.453125.90625.667968 1.867187.667968 2.8125-.003906 2.308594-1.277343 4.53125-3.484374 5.632813-.902344.453124-1.863282.667968-2.808594.667968ZM195.335938 178.910156h-17.183594c-2.003906 0-3.726563-1.414062-4.117188-3.378906-.390625-1.960938.660156-3.929688 2.507813-4.695312 10.980469-4.546876 13.738281-9.648438 13.453125-10.542969-.207032-.636719-1.902344-2.191407-3.644532-1.996094-1.777343.117187-3.816406 2.035156-4.015624 4.925781-.15625 2.316406-2.199219 4.023438-4.46875 3.902344-2.316407-.15625-4.0625-2.160156-3.902344-4.472656.464844-6.84375 5.550781-12.320313 11.828125-12.734375 5.277343-.296875 10.707031 3.160156 12.195312 7.816406 1.328125 4.148437-.535156 8.652344-4.949219 12.78125h2.296876c2.316406 0 4.195312 1.878906 4.195312 4.199219 0 2.316406-1.878906 4.195312-4.195312 4.195312ZM405 807.976562c-3.476562 0-6.296875-2.820312-6.296875-6.296874V8.320312c0-3.476562 2.820313-6.296874 6.296875-6.296874s6.296875 2.820312 6.296875 6.296874v793.359376c0 3.476562-2.820313 6.296874-6.296875 6.296874ZM496.539062 252.730469c-1.066406 0-2.148437-.273438-3.140624-.84375-3.011719-1.738281-4.042969-5.589844-2.304688-8.601563l106.796875-184.96875c1.738281-3.007812 5.589844-4.042968 8.597656-2.304687 3.007813 1.738281 4.042969 5.589843 2.300781 8.597656L501.996094 249.582031c-1.164063 2.019531-3.277344 3.148438-5.457032 3.148438ZM311.738281 249.757812c-2.175781 0-4.289062-1.132812-5.457031-3.152343L201.207031 64.609375C199.46875 61.601562 200.5 57.75 203.511719 56.011719c3.019531-1.738281 6.863281-.707031 8.597656 2.304687L317.183594 240.3125c1.742187 3.007812.707031 6.859375-2.300782 8.597656-.992187.574219-2.074218.847656-3.144531.847656ZM245.484375 319.207031c-1.066406 0-2.148437-.273437-3.140625-.847656l-184.027344-106.25c-3.011718-1.734375-4.042968-5.585937-2.304687-8.597656 1.742187-3.007813 5.585937-4.042969 8.597656-2.304688l184.03125 106.25c3.007813 1.738281 4.042969 5.589844 2.300781 8.597657-1.164062 2.019531-3.28125 3.152343-5.457031 3.152343Zm0 0"/>
  <path d="M801.679688 411.296875H8.320312c-3.476562 0-6.296874-2.820313-6.296874-6.296875s2.820312-6.296875 6.296874-6.296875h793.359376c3.476562 0 6.296874 2.820313 6.296874 6.296875s-2.820312 6.296875-6.296874 6.296875ZM61.46875 609.636719c-2.175781 0-4.289062-1.128907-5.457031-3.148438-1.738281-3.011719-.707031-6.863281 2.304687-8.597656l187.003906-107.96875c3.015626-1.742187 6.863282-.707031 8.597657 2.304687 1.738281 3.011719.707031 6.859376-2.304688 8.597657L64.609375 608.789062c-.988281.574219-2.070313.847657-3.140625.847657ZM206.652344 754.832031c-1.066406 0-2.148438-.269531-3.140625-.84375-3.011719-1.738281-4.042969-5.589843-2.304688-8.597656l106.796875-184.972656c1.738282-3.007813 5.585938-4.046875 8.597656-2.304688 3.007813 1.738281 4.042969 5.589844 2.300782 8.601563l-106.792969 184.96875c-1.164063 2.019531-3.277344 3.148437-5.457031 3.148437ZM603.347656 754.832031c-2.179687 0-4.292968-1.128906-5.457031-3.148437l-106.5625-184.574219c-1.742187-3.007813-.707031-6.859375 2.300781-8.597656 3.019532-1.738281 6.863282-.707031 8.601563 2.304687l106.558593 184.574219c1.742188 3.007813.707032 6.859375-2.300781 8.597656-.992187.574219-2.074219.84375-3.140625.84375ZM748.53125 609.636719c-1.070312 0-2.152344-.273438-3.144531-.847657l-182.9375-105.617187c-3.007813-1.738281-4.042969-5.589844-2.300781-8.597656 1.742187-3.007813 5.585937-4.046875 8.597656-2.304688l182.9375 105.621094c3.011718 1.734375 4.042968 5.585937 2.304687 8.597656-1.167969 2.019531-3.28125 3.148438-5.457031 3.148438ZM568.582031 316.855469c-2.179687 0-4.292969-1.128907-5.457031-3.148438-1.742188-3.011719-.707031-6.859375 2.300781-8.597656l179.960938-103.902344c3.019531-1.738281 6.863281-.707031 8.601562 2.304688 1.738281 3.011719.707031 6.863281-2.304687 8.597656L571.722656 316.011719c-.992187.574219-2.074218.84375-3.140625.84375ZM106.09375 367.535156c-2.710938 0-5.210938-1.765625-6.027344-4.488281l-18.167968-60.558594c-.183594-.601562-.269532-1.210937-.269532-1.808593-.003906-2.707032 1.757813-5.210938 4.488282-6.03125 3.335937-1.011719 6.835937.890624 7.835937 4.21875L112.125 359.425781c.179688.601563.265625 1.210938.265625 1.808594.003906 2.707031-1.757813 5.210937-4.488281 6.03125-.601563.179687-1.210938.265625-1.808594.265625Zm0 0"/>
  <path d="M106.097656 367.535156c-.597656 0-1.207031-.089844-1.8125-.269531-2.726562-.820313-4.488281-3.324219-4.488281-6.03125 0-.597656.085937-1.207031.269531-1.808594l18.164063-60.558593c1-3.328126 4.503906-5.230469 7.839843-4.21875 2.726563.820312 4.492188 3.324218 4.488282 6.03125 0 .597656-.085938 1.207031-.269532 1.808593L112.125 363.046875c-.820312 2.722656-3.320312 4.488281-6.027344 4.488281ZM147.726562 369.109375c-3.476562 0-6.292968-2.816406-6.292968-6.296875v-60.558594c0-3.476562 2.816406-6.296875 6.292968-6.296875 3.476563 0 6.296876 2.820313 6.296876 6.296875V362.8125c0 3.480469-2.820313 6.296875-6.296876 6.296875ZM209.289062 244.273438c-3.476562 0-6.296874-2.816407-6.296874-6.292969v-60.558594c0-3.476563 2.820312-6.296875 6.296874-6.296875 3.476563 0 6.296876 2.820312 6.296876 6.296875v60.558594c0 3.476562-2.820313 6.292969-6.296876 6.292969Zm0 0"/>
  <path d="M227.457031 213.996094h-18.167969c-3.476562 0-6.296874-2.816406-6.296874-6.296875v-30.277344c0-3.476563 2.820312-6.296875 6.296874-6.296875h18.167969c11.820313 0 21.433594 9.617188 21.433594 21.4375s-9.613281 21.433594-21.433594 21.433594Zm-11.871093-12.589844h11.871093c4.875 0 8.84375-3.96875 8.84375-8.84375 0-4.878906-3.96875-8.847656-8.84375-8.847656h-11.871093Zm0 0"/>
  <path d="M242.601562 244.277344c-2.3125 0-4.53125-1.277344-5.636718-3.484375l-15.136719-30.277344c-.453125-.90625-.667969-1.867187-.667969-2.816406.003906-2.304688 1.277344-4.527344 3.480469-5.628907 3.109375-1.550781 6.890625-.296874 8.449219 2.816407l15.136718 30.277343c.453126.90625.667969 1.867188.667969 2.816407-.003906 2.304687-1.277343 4.527343-3.484375 5.628906-.902344.453125-1.863281.667969-2.808594.667969ZM163.6875 242.507812c-3.476562 0-6.296875-2.816406-6.296875-6.296874V175.65625c0-3.480469 2.820313-6.296875 6.296875-6.296875s6.292969 2.816406 6.292969 6.296875v60.554688c0 3.480468-2.816407 6.296874-6.292969 6.296874ZM335.398438 110.183594c-2.710938 0-5.210938-1.761719-6.027344-4.488282l-18.171875-60.558593c-.179688-.605469-.265625-1.210938-.265625-1.808594-.003906-2.710937 1.757812-5.214844 4.488281-6.03125 3.335937-1.015625 6.835937.890625 7.835937 4.21875l18.171876 60.558594c.179687.605469.265624 1.210937.265624 1.808593.003907 2.710938-1.757812 5.214844-4.488281 6.03125-.601562.183594-1.210937.269532-1.808593.269532Zm0 0"/>
  <path d="M335.402344 110.183594c-.601563 0-1.207032-.085938-1.8125-.269532-2.726563-.816406-4.492188-3.320312-4.488282-6.03125 0-.597656.085938-1.203124.269532-1.808593l18.164062-60.558594c1-3.328125 4.503906-5.230469 7.839844-4.21875 2.726562.816406 4.488281 3.320313 4.488281 6.03125 0 .597656-.085937 1.203125-.269531 1.808594l-18.167969 60.558593c-.816406 2.726563-3.316406 4.488282-6.023437 4.488282ZM325.621094 220.167969c-3.480469 0-6.296875-2.820313-6.296875-6.296875V153.3125c0-3.476562 2.816406-6.292969 6.296875-6.292969 3.476562 0 6.292968 2.816407 6.292968 6.292969v60.558594c0 3.476562-2.816406 6.296875-6.292968 6.296875Zm0 0"/>
  <path d="M343.785156 189.890625h-18.164062c-3.480469 0-6.296875-2.820313-6.296875-6.296875V153.3125c0-3.476562 2.816406-6.292969 6.296875-6.292969h18.164062c11.820313 0 21.4375 9.613281 21.4375 21.433594 0 11.820313-9.617187 21.4375-21.4375 21.4375Zm-11.871094-12.59375h11.871094c4.878906 0 8.847656-3.964844 8.847656-8.84375 0-4.875-3.96875-8.84375-8.847656-8.84375h-11.871094Zm0 0"/>
  <path d="M358.929688 220.167969c-2.308594 0-4.53125-1.277344-5.632813-3.480469l-15.140625-30.277344c-.453125-.90625-.667969-1.867187-.667969-2.816406.003907-2.308594 1.277344-4.527344 3.484375-5.632812 3.105469-1.546876 6.890625-.289063 8.445313 2.816406l15.140625 30.277344c.449218.90625.664062 1.867187.664062 2.816406 0 2.308594-1.277344 4.527344-3.480468 5.632812-.902344.449219-1.863282.664063-2.8125.664063ZM374.636719 136.328125h-76.1875c-3.476563 0-6.292969-2.820313-6.292969-6.296875s2.816406-6.292969 6.292969-6.292969h76.1875c3.480469 0 6.296875 2.816407 6.296875 6.292969 0 3.476562-2.816406 6.296875-6.296875 6.296875ZM384.378906 55.175781h-17.1875c-2.003906 0-3.726562-1.414062-4.117187-3.378906-.390625-1.964844.660156-3.929687 2.511719-4.695313 10.976562-4.546874 13.738281-9.652343 13.449218-10.546874-.230468-.726563-1.945312-2.179688-3.644531-1.996094-1.773437.117187-3.8125 2.035156-4.011719 4.929687-.160156 2.308594-2.175781 4.03125-4.472656 3.902344-2.3125-.160156-4.058594-2.160156-3.902344-4.472656.464844-6.84375 5.554688-12.320313 11.832032-12.738281 5.261718-.300782 10.699218 3.160156 12.195312 7.8125 1.328125 4.152343-.535156 8.65625-4.953125 12.789062h2.300781c2.316406 0 4.195313 1.878906 4.195313 4.195312 0 2.320313-1.878907 4.199219-4.195313 4.199219ZM481.035156 157.75c-3.476562 0-6.292968-2.816406-6.292968-6.296875V90.898438c0-3.480469 2.816406-6.296876 6.292968-6.296876 3.476563 0 6.296875 2.816407 6.296875 6.296876v60.554687c0 3.480469-2.820312 6.296875-6.296875 6.296875Zm0 0"/>
  <path d="M499.203125 127.46875h-18.167969c-3.476562 0-6.292968-2.816406-6.292968-6.292969V90.898438c0-3.480469 2.816406-6.296876 6.292968-6.296876h18.167969c11.820313 0 21.433594 9.617188 21.433594 21.433594 0 11.820313-9.613281 21.433594-21.433594 21.433594Zm-11.871094-12.589844h11.871094c4.875 0 8.84375-3.964844 8.84375-8.84375 0-4.875-3.96875-8.84375-8.84375-8.84375h-11.871094Zm0 0"/>
  <path d="M514.347656 157.753906c-2.3125 0-4.53125-1.277344-5.636718-3.484375l-15.140626-30.277343c-.449218-.90625-.664062-1.867188-.664062-2.816407 0-2.308593 1.277344-4.53125 3.480469-5.632812 3.109375-1.546875 6.890625-.292969 8.445312 2.816406l15.140625 30.28125c.453125.90625.667969 1.867187.667969 2.8125-.003906 2.308594-1.277344 4.53125-3.484375 5.632813-.902344.449218-1.863281.667968-2.808594.667968ZM445.742188 155.984375c-3.476563 0-6.292969-2.820313-6.292969-6.296875V89.128906c0-3.476562 2.816406-6.292968 6.292969-6.292968 3.480468 0 6.296874 2.816406 6.296874 6.292968V149.6875c0 3.476562-2.816406 6.296875-6.296874 6.296875ZM605.496094 171.582031c-3.476563 0-6.292969-2.816406-6.292969-6.292969v-62.492187c0-3.480469 2.816406-6.296875 6.292969-6.296875 3.480468 0 6.296875 2.816406 6.296875 6.296875v62.492187c0 3.476563-2.816407 6.292969-6.296875 6.292969Zm0 0"/>
  <path d="M624.246094 140.335938h-18.75c-3.476563 0-6.292969-2.816407-6.292969-6.296876v-31.242187c0-3.480469 2.816406-6.296875 6.292969-6.296875h18.75c12.085937 0 21.917968 9.832031 21.917968 21.917969 0 12.085937-9.832031 21.917969-21.917968 21.917969Zm-12.453125-12.589844h12.453125c5.140625 0 9.328125-4.1875 9.328125-9.328125 0-5.144531-4.1875-9.328125-9.328125-9.328125h-12.453125ZM647.03125 191.894531h-76.191406c-3.476563 0-6.292969-2.820312-6.292969-6.296875 0-3.476562 2.816406-6.296875 6.292969-6.296875h76.191406c3.476562 0 6.292969 2.820313 6.292969 6.296875 0 3.476563-2.816407 6.296875-6.292969 6.296875ZM605.496094 273.726562c-3.476563 0-6.292969-2.816406-6.292969-6.292968V206.875c0-3.476562 2.816406-6.296875 6.292969-6.296875 3.480468 0 6.296875 2.820313 6.296875 6.296875v60.558594c0 3.476562-2.816407 6.292968-6.296875 6.292968ZM618.609375 392.984375c-2.550781 0-4.878906-1.546875-5.839844-3.957031l-16.171875-40.425782c-1.289062-3.226562.277344-6.890624 3.507813-8.183593 3.222656-1.289063 6.890625.28125 8.179687 3.507812l8 19.992188 12.300782-68.886719c.535156-3.003906 3.148437-5.191406 6.199218-5.191406h125.765625c3.476563 0 6.292969 2.820312 6.292969 6.296875 0 3.476562-2.816406 6.296875-6.292969 6.296875H640.054688l-15.246094 85.363281c-.492188 2.765625-2.757813 4.871094-5.554688 5.15625-.214844.023437-.429687.03125-.644531.03125Zm0 0"/>
  <path d="M653.617188 388.121094c-3.476563 0-6.296876-2.820313-6.296876-6.296875v-62.492188c0-3.476562 2.820313-6.292969 6.296876-6.292969 3.476562 0 6.292968 2.816407 6.292968 6.292969v62.492188c0 3.476562-2.816406 6.296875-6.292968 6.296875Zm0 0"/>
  <path d="M672.363281 356.875h-18.746093c-3.476563 0-6.296876-2.816406-6.296876-6.296875v-31.246094c0-3.476562 2.820313-6.292969 6.296876-6.292969h18.746093c12.089844 0 21.921875 9.832032 21.921875 21.917969 0 12.085938-9.832031 21.917969-21.921875 21.917969Zm-12.453125-12.589844h12.453125c5.144531 0 9.332031-4.183594 9.332031-9.328125s-4.1875-9.328125-9.332031-9.328125h-12.453125ZM716.015625 387.152344c-3.476563 0-6.292969-2.816406-6.292969-6.292969v-60.558594c0-3.480469 2.816406-6.296875 6.292969-6.296875 3.480469 0 6.296875 2.816406 6.296875 6.296875v60.558594c0 3.476563-2.816406 6.292969-6.296875 6.292969Zm0 0"/>
  <path d="M734.183594 356.875h-18.167969c-3.476563 0-6.292969-2.816406-6.292969-6.296875v-30.277344c0-3.480469 2.816406-6.296875 6.292969-6.296875h18.167969c11.820312 0 21.4375 9.617188 21.4375 21.4375 0 11.820313-9.617188 21.433594-21.4375 21.433594ZM722.3125 344.285156h11.871094c4.878906 0 8.847656-3.96875 8.847656-8.84375 0-4.878906-3.96875-8.847656-8.847656-8.847656H722.3125Zm0 0"/>
  <path d="M749.328125 387.15625c-2.304687 0-4.53125-1.277344-5.632813-3.484375l-15.140624-30.277344c-.453126-.90625-.667969-1.867187-.667969-2.8125.003906-2.308593 1.277343-4.53125 3.484375-5.632812 3.109375-1.546875 6.890625-.296875 8.445312 2.816406l15.140625 30.277344c.449219.90625.664063 1.867187.664063 2.8125 0 2.308593-1.273438 4.53125-3.480469 5.632812-.902344.453125-1.863281.667969-2.8125.667969ZM48.621094 525.121094c-2.46875 0-4.734375-1.449219-5.753906-3.746094l-17.886719-40.425781c-1.40625-3.179688.027343-6.898438 3.210937-8.304688 3.175782-1.414062 6.894532.03125 8.300782 3.210938l9.820312 22.191406 14.027344-70.992187c.582031-2.949219 3.167968-5.074219 6.175781-5.074219h139.132813c3.476562 0 6.292968 2.816406 6.292968 6.296875 0 3.476562-2.816406 6.292968-6.292968 6.292968H71.6875l-16.886719 85.476563c-.53125 2.695313-2.75 4.734375-5.480469 5.035156-.234374.027344-.464843.039063-.699218.039063Zm0 0"/>
  <path d="M81.910156 516.820312c-3.476562 0-6.292968-2.816406-6.292968-6.292968V448.03125c0-3.476562 2.816406-6.292969 6.292968-6.292969 3.480469 0 6.296875 2.816407 6.296875 6.292969v62.496094c0 3.476562-2.816406 6.292968-6.296875 6.292968Zm0 0"/>
  <path d="M100.660156 485.574219h-18.75c-3.476562 0-6.292968-2.816407-6.292968-6.292969v-31.25c0-3.476562 2.816406-6.292969 6.292968-6.292969h18.75c12.085938 0 21.917969 9.832031 21.917969 21.917969 0 12.085938-9.832031 21.917969-21.917969 21.917969Zm-12.453125-12.589844h12.453125c5.144532 0 9.328125-4.183594 9.328125-9.328125s-4.183593-9.328125-9.328125-9.328125H88.207031ZM158.058594 515.855469c-3.476563 0-6.292969-2.820313-6.292969-6.296875V449c0-3.476562 2.816406-6.296875 6.292969-6.296875 3.480468 0 6.296875 2.820313 6.296875 6.296875v60.558594c0 3.476562-2.816407 6.296875-6.296875 6.296875Zm0 0"/>
  <path d="M176.226562 485.574219h-18.167968c-3.476563 0-6.292969-2.816407-6.292969-6.292969V449c0-3.476562 2.816406-6.296875 6.292969-6.296875h18.167968c11.820313 0 21.433594 9.617187 21.433594 21.4375s-9.613281 21.433594-21.433594 21.433594Zm-11.871093-12.589844h11.871093c4.878907 0 8.84375-3.96875 8.84375-8.84375 0-4.878906-3.964843-8.84375-8.84375-8.84375h-11.871093Zm0 0"/>
  <path d="M191.371094 515.855469c-2.308594 0-4.535156-1.273438-5.636719-3.480469l-15.136719-30.28125c-.453125-.902344-.667968-1.867188-.667968-2.8125.003906-2.308594 1.277343-4.53125 3.484374-5.632812 3.101563-1.546876 6.890626-.292969 8.445313 2.816406l15.136719 30.277344c.453125.90625.667968 1.867187.667968 2.816406-.003906 2.308594-1.277343 4.53125-3.480468 5.632812-.90625.449219-1.867188.664063-2.8125.664063ZM124.265625 521.6875c-.4375 0-.886719-.046875-1.335937-.144531-3.394532-.734375-5.554688-4.082031-4.824219-7.484375l14.9375-69.144532c.734375-3.394531 4.078125-5.546874 7.484375-4.824218 3.398437.734375 5.554687 4.085937 4.824218 7.484375l-14.9375 69.144531c-.636718 2.949219-3.246093 4.96875-6.148437 4.96875ZM240.496094 631.742188h-76.1875c-3.476563 0-6.296875-2.820313-6.296875-6.296876 0-3.476562 2.820312-6.296874 6.296875-6.296874h76.1875c3.476562 0 6.292968 2.820312 6.292968 6.296874 0 3.476563-2.816406 6.296876-6.292968 6.296876ZM196.289062 614.777344c-3.476562 0-6.292968-2.816406-6.292968-6.292969v-62.492187c0-3.476563 2.816406-6.296876 6.292968-6.296876 3.480469 0 6.296876 2.820313 6.296876 6.296876v62.492187c0 3.476563-2.816407 6.292969-6.296876 6.292969Zm0 0"/>
  <path d="M215.039062 583.53125h-18.75c-3.476562 0-6.292968-2.816406-6.292968-6.292969v-31.246093c0-3.476563 2.816406-6.296876 6.292968-6.296876h18.75c12.085938 0 21.917969 9.832032 21.917969 21.917969 0 12.085938-9.832031 21.917969-21.917969 21.917969Zm-12.453124-12.589844h12.453124c5.144532 0 9.328126-4.183594 9.328126-9.328125 0-5.140625-4.183594-9.328125-9.328126-9.328125h-12.453124ZM202.78125 710.816406c-2.710938 0-5.210938-1.761718-6.027344-4.488281l-18.167968-60.558594c-.179688-.601562-.265626-1.207031-.265626-1.808593-.003906-2.707032 1.757813-5.210938 4.484376-6.03125 3.335937-1.003907 6.839843.890624 7.839843 4.222656l18.167969 60.558594c.179688.601562.269531 1.207031.269531 1.808593 0 2.707031-1.761719 5.210938-4.488281 6.03125-.605469.179688-1.214844.265625-1.8125.265625Zm0 0"/>
  <path d="M202.785156 710.816406c-.597656 0-1.207031-.085937-1.8125-.265625-2.726562-.820312-4.484375-3.316406-4.488281-6.023437 0-.601563.085937-1.210938.269531-1.816406l18.167969-60.558594c1-3.328125 4.5-5.226563 7.839844-4.222656 2.726562.820312 4.484375 3.316406 4.488281 6.023437 0 .601563-.085938 1.210937-.269531 1.816406L208.8125 706.328125c-.820312 2.726563-3.320312 4.488281-6.027344 4.488281ZM338.355469 667.28125c-2.707031 0-5.207031-1.761719-6.027344-4.488281l-18.164063-60.558594c-.183593-.605469-.269531-1.210937-.269531-1.808594-.003906-2.710937 1.757813-5.214843 4.488281-6.03125 3.34375-1.011719 6.835938.890625 7.835938 4.21875l18.167969 60.5625c.183593.601563.269531 1.207031.269531 1.804688 0 2.710937-1.761719 5.214843-4.488281 6.03125-.605469.183593-1.214844.269531-1.8125.269531Zm0 0"/>
  <path d="M338.359375 667.28125c-.597656 0-1.207031-.085938-1.8125-.269531-2.722656-.816407-4.484375-3.316407-4.488281-6.019531 0-.601563.089844-1.214844.269531-1.816407l18.167969-60.5625c1-3.324219 4.5-5.226562 7.839844-4.21875 2.726562.816407 4.484374 3.316407 4.488281 6.019531 0 .605469-.085938 1.214844-.269531 1.820313l-18.167969 60.558594c-.816407 2.726562-3.316407 4.488281-6.027344 4.488281ZM320.558594 776.683594c-3.476563 0-6.296875-2.816406-6.296875-6.292969v-60.558594c0-3.476562 2.820312-6.296875 6.296875-6.296875 3.476562 0 6.292968 2.820313 6.292968 6.296875v60.558594c0 3.476563-2.816406 6.292969-6.292968 6.292969Zm0 0"/>
  <path d="M338.726562 746.40625h-18.167968c-3.476563 0-6.296875-2.816406-6.296875-6.292969v-30.28125c0-3.476562 2.820312-6.296875 6.296875-6.296875h18.167968c11.820313 0 21.433594 9.617188 21.433594 21.4375 0 11.820313-9.613281 21.433594-21.433594 21.433594Zm-11.875-12.589844h11.875c4.878907 0 8.84375-3.96875 8.84375-8.84375 0-4.878906-3.964843-8.84375-8.84375-8.84375h-11.875Zm0 0"/>
  <path d="M353.871094 776.6875c-2.308594 0-4.53125-1.277344-5.636719-3.480469l-15.140625-30.28125c-.449219-.902343-.664062-1.863281-.664062-2.8125 0-2.308593 1.277343-4.53125 3.480468-5.632812 3.109375-1.546875 6.890625-.292969 8.449219 2.816406L359.5 767.574219c.449219.90625.664062 1.867187.664062 2.8125-.003906 2.308593-1.277343 4.53125-3.480468 5.632812-.90625.453125-1.867188.667969-2.8125.667969ZM373.015625 692.84375h-76.191406c-3.476563 0-6.292969-2.816406-6.292969-6.292969 0-3.476562 2.816406-6.296875 6.292969-6.296875h76.191406c3.476563 0 6.292969 2.820313 6.292969 6.296875 0 3.476563-2.816406 6.292969-6.292969 6.292969ZM488.800781 721.96875h-17.183593c-2 0-3.726563-1.414062-4.117188-3.378906-.390625-1.964844.664062-3.929688 2.511719-4.695313 10.980469-4.546875 13.738281-9.652343 13.449219-10.546875-.230469-.726562-1.945313-2.125-3.644532-1.996094-1.777344.117188-3.816406 2.035157-4.011718 4.925782-.160157 2.3125-2.175782 4.054687-4.472657 3.902344-2.3125-.15625-4.058593-2.160157-3.902343-4.472657.464843-6.839843 5.550781-12.316406 11.832031-12.730469 5.246093-.320312 10.703125 3.15625 12.195312 7.808594 1.328125 4.152344-.535156 8.65625-4.953125 12.789063h2.296875c2.320313 0 4.199219 1.878906 4.199219 4.195312 0 2.320313-1.878906 4.199219-4.199219 4.199219ZM457.152344 785.566406c-3.476563 0-6.292969-2.820312-6.292969-6.296875v-60.558593c0-3.476563 2.816406-6.292969 6.292969-6.292969 3.480468 0 6.296875 2.816406 6.296875 6.292969v60.558593c0 3.476563-2.816407 6.296875-6.296875 6.296875ZM505.917969 686.273438h-76.191407c-3.476562 0-6.292968-2.816407-6.292968-6.296876 0-3.476562 2.816406-6.292968 6.292968-6.292968h76.191407c3.476562 0 6.296875 2.816406 6.296875 6.292968 0 3.480469-2.820313 6.296876-6.296875 6.296876ZM461.710938 669.3125c-3.476563 0-6.296876-2.820312-6.296876-6.296875v-62.492187c0-3.476563 2.820313-6.292969 6.296876-6.292969 3.476562 0 6.296874 2.816406 6.296874 6.292969v62.492187c0 3.476563-2.820312 6.296875-6.296874 6.296875Zm0 0"/>
  <path d="M480.460938 638.066406h-18.75c-3.476563 0-6.296876-2.820312-6.296876-6.296875v-31.246093c0-3.476563 2.820313-6.292969 6.296876-6.292969h18.75c12.085937 0 21.917968 9.832031 21.917968 21.917969 0 12.082031-9.832031 21.917968-21.917968 21.917968Zm-12.453126-12.59375h12.453126c5.144531 0 9.328124-4.183594 9.328124-9.324218 0-5.144532-4.183593-9.328126-9.328124-9.328126h-12.453126ZM575.996094 637.777344c-2.710938 0-5.210938-1.761719-6.027344-4.488282l-18.167969-60.558593c-.183593-.601563-.269531-1.207031-.269531-1.804688-.003906-2.710937 1.757812-5.214843 4.488281-6.03125 3.335938-1.007812 6.839844.890625 7.835938 4.21875l18.171875 60.558594c.179687.601563.265625 1.207031.265625 1.804687.003906 2.710938-1.757813 5.214844-4.488281 6.03125-.601563.183594-1.210938.269532-1.808594.269532Zm0 0"/>
  <path d="M576 637.777344c-.601562 0-1.207031-.085938-1.8125-.269532-2.726562-.816406-4.492188-3.320312-4.488281-6.03125 0-.597656.085937-1.203124.269531-1.804687l18.164062-60.558594c.996094-3.328125 4.492188-5.222656 7.839844-4.21875 2.726563.816407 4.488282 3.320313 4.488282 6.03125 0 .597657-.085938 1.203125-.269532 1.804688l-18.164062 60.558593c-.820313 2.726563-3.320313 4.488282-6.027344 4.488282ZM614.664062 562.148438h-17.183593c-2.003907 0-3.726563-1.414063-4.117188-3.378907-.390625-1.964843.660157-3.929687 2.507813-4.695312 10.980468-4.546875 13.738281-9.652344 13.453125-10.542969-.207031-.632812-1.886719-2.175781-3.644531-2-1.777344.117188-3.816407 2.035156-4.015626 4.925781-.15625 2.316407-2.171874 4.074219-4.46875 3.90625-2.3125-.15625-4.0625-2.160156-3.902343-4.46875.460937-6.847656 5.546875-12.320312 11.828125-12.738281 5.257812-.304688 10.703125 3.15625 12.195312 7.8125 1.328125 4.148438-.535156 8.652344-4.949218 12.785156h2.296874c2.316407 0 4.195313 1.878906 4.195313 4.195313 0 2.320312-1.878906 4.199219-4.195313 4.199219ZM655.71875 670.917969c-3.480469 0-6.296875-2.816407-6.296875-6.292969v-62.492188c0-3.480468 2.816406-6.296874 6.296875-6.296874 3.476562 0 6.292969 2.816406 6.292969 6.296874V664.625c0 3.476562-2.816407 6.292969-6.292969 6.292969Zm0 0"/>
  <path d="M674.464844 639.671875H655.71875c-3.480469 0-6.296875-2.816406-6.296875-6.296875v-31.242188c0-3.480468 2.816406-6.296874 6.296875-6.296874h18.746094c12.085937 0 21.917968 9.832031 21.917968 21.917968 0 12.085938-9.832031 21.917969-21.917968 21.917969Zm-12.453125-12.589844h12.453125c5.144531 0 9.328125-4.1875 9.328125-9.328125 0-5.144531-4.183594-9.328125-9.328125-9.328125h-12.453125ZM597.59375 652.082031c-1.195312 0-2.402344-.335937-3.472656-1.046875-2.898438-1.921875-3.691406-5.828125-1.765625-8.722656l44.558593-67.214844c1.921876-2.898437 5.828126-3.695312 8.726563-1.769531 2.898437 1.921875 3.6875 5.828125 1.765625 8.722656l-44.558594 67.21875c-1.210937 1.824219-3.210937 2.8125-5.253906 2.8125ZM646.992188 510.039062c-2.707032 0-5.207032-1.761718-6.027344-4.488281l-18.164063-60.558593c-.183593-.601563-.269531-1.207032-.269531-1.804688-.003906-2.710938 1.761719-5.214844 4.488281-6.03125 3.335938-1.015625 6.839844.890625 7.839844 4.21875l18.164063 60.558594c.183593.601562.269531 1.207031.269531 1.804687 0 2.710938-1.761719 5.214844-4.488281 6.03125-.605469.183594-1.214844.269531-1.8125.269531Zm0 0"/>
  <path d="M646.996094 510.039062c-.597656 0-1.207032-.085937-1.808594-.269531-2.726562-.816406-4.488281-3.316406-4.488281-6.019531 0-.601562.085937-1.214844.265625-1.816406L659.136719 441.375c.996093-3.328125 4.5-5.230469 7.835937-4.21875 2.726563.816406 4.488282 3.3125 4.488282 6.019531 0 .601563-.085938 1.214844-.269532 1.816407l-18.167968 60.558593c-.816407 2.726563-3.320313 4.488281-6.027344 4.488281ZM739.738281 517.191406c-3.480469 0-6.296875-2.816406-6.296875-6.296875v-60.558593c0-3.476563 2.816406-6.292969 6.296875-6.292969 3.476563 0 6.292969 2.816406 6.292969 6.292969v60.558593c0 3.480469-2.816406 6.296875-6.292969 6.296875ZM674.234375 513.753906c-1.167969 0-2.347656-.324218-3.402344-1-2.925781-1.886718-3.765625-5.78125-1.886719-8.703125l41.628907-64.648437c1.878906-2.921875 5.777343-3.769532 8.699219-1.886719 2.925781 1.882813 3.769531 5.777344 1.886718 8.703125l-41.625 64.648438c-1.203125 1.867187-3.230468 2.886718-5.300781 2.886718ZM732.749322 687.795247h18.21875v25.4375c0 1.355469-.027344 2.875-.078125 4.5625-.054688 1.679688-.125 3.242188-.21875 4.6875-.1875 1.636719-.335938 3.324219-.4375 5.0625h1.3125c.957031-4.71875 3.289062-8.425781 7-11.125 3.707031-2.695312 8.453125-4.046875 14.234375-4.046875 4.144531 0 7.898437.726563 11.265625 2.171875 3.375 1.4375 6.238281 3.507812 8.59375 6.203125 2.363281 2.699219 4.195312 5.953125 5.5 9.765625 1.300781 3.804688 1.953125 8.109375 1.953125 12.921875v19.796875c0 4.824219-.652344 9.1875-1.953125 13.09375-1.304688 3.898438-3.136719 7.21875-5.5 9.96875-2.355469 2.742188-5.21875 4.835938-8.59375 6.28125-3.367188 1.4375-7.121094 2.15625-11.265625 2.15625-5.78125 0-10.527344-1.34375-14.234375-4.03125-3.710938-2.695312-6.042969-6.457031-7-11.28125h-1.3125v13.875h-17.484375Zm18.21875 75.4375c0 4.71875 1.367187 8.527344 4.109375 11.421875 2.75 2.886719 6.484375 4.328125 11.203125 4.328125 4.914063 0 8.769531-1.46875 11.5625-4.40625 2.789063-2.9375 4.1875-6.863281 4.1875-11.78125v-18.921875c0-4.914063-1.398437-8.796875-4.1875-11.640625-2.792969-2.84375-6.648437-4.265625-11.5625-4.265625-4.625 0-8.335937 1.449219-11.125 4.34375-2.792969 2.886719-4.1875 6.742187-4.1875 11.5625Zm0 0"/>
</svg>
